<?xml version="1.0" standalone="no"?>
<!DOCTYPE svg PUBLIC "-//W3C//DTD SVG 20010904//EN"
 "http://www.w3.org/TR/2001/REC-SVG-20010904/DTD/svg10.dtd">
<svg version="1.0" xmlns="http://www.w3.org/2000/svg"
 width="512.000000pt" height="512.000000pt" viewBox="0 0 512.000000 512.000000"
 preserveAspectRatio="xMidYMid meet">
<g transform="translate(0.000000,512.000000) scale(0.100000,-0.100000)"
fill="currentColor" stroke="none">
<path d="M715 4314 c-182 -20 -453 -93 -560 -152 -83 -46 -99 -114 -34 -150
200 -111 308 -188 433 -309 498 -486 626 -1236 316 -1853 -83 -165 -163 -274
-304 -416 -131 -130 -233 -207 -401 -300 -79 -44 -96 -72 -76 -122 16 -37 115
-85 282 -136 179 -54 304 -71 524 -71 214 1 330 18 526 81 137 44 357 155 479
241 122 87 326 291 412 413 75 105 196 334 224 423 10 31 21 57 24 57 3 0 14
-24 23 -54 10 -30 44 -109 78 -176 207 -423 567 -741 1008 -894 374 -130 801
-125 1184 15 153 55 202 97 181 156 -7 21 -31 40 -98 76 -437 236 -730 634
-828 1122 -33 160 -32 454 1 605 104 485 393 869 834 1110 101 55 119 89 77
142 -38 49 -283 136 -490 175 -71 13 -147 17 -300 17 -186 0 -217 -3 -333 -28
-371 -79 -671 -245 -927 -512 -47 -49 -107 -117 -133 -151 -102 -133 -209
-330 -253 -465 -11 -32 -22 -58 -25 -58 -3 0 -20 39 -39 88 -182 482 -594 879
-1077 1038 -182 60 -324 84 -518 88 -93 2 -188 2 -210 0z m468 -184 c203 -39
411 -125 587 -241 132 -88 344 -300 433 -434 381 -576 364 -1304 -42 -1850
-65 -87 -224 -248 -311 -314 -396 -302 -914 -405 -1390 -275 -52 14 -99 28
-103 31 -4 3 23 25 60 50 288 192 527 490 658 818 262 658 96 1417 -416 1910
-100 97 -154 140 -243 199 -37 24 -64 46 -59 49 22 14 216 60 301 72 136 20
385 13 525 -15z m3270 15 c94 -12 232 -44 307 -71 10 -3 -2 -15 -35 -36 -311
-192 -591 -555 -713 -924 -68 -206 -86 -319 -87 -544 0 -205 8 -273 52 -445
43 -166 111 -329 201 -480 119 -199 341 -430 535 -556 32 -21 54 -40 48 -43
-25 -16 -249 -65 -344 -76 -126 -15 -328 -8 -462 15 -49 9 -151 36 -225 61
-549 182 -946 639 -1062 1219 -32 161 -32 455 0 605 127 585 531 1036 1087
1213 227 72 463 93 698 62z"/>
</g>
</svg>
