<?xml version="1.0" standalone="no"?>
<!DOCTYPE svg PUBLIC "-//W3C//DTD SVG 20010904//EN"
 "http://www.w3.org/TR/2001/REC-SVG-20010904/DTD/svg10.dtd">
<svg version="1.0" xmlns="http://www.w3.org/2000/svg"
 width="512.000000pt" height="512.000000pt" viewBox="0 0 512.000000 512.000000"
 preserveAspectRatio="xMidYMid meet">
<g transform="translate(0.000000,512.000000) scale(0.100000,-0.100000)"
fill="currentColor" stroke="none">
<path d="M2510 4942 c-25 -20 -23 -10 -239 -1337 -56 -341 -105 -626 -109
-634 -9 -15 -56 -23 -1417 -246 -483 -79 -542 -91 -562 -111 -30 -30 -30 -78
0 -108 20 -20 79 -32 562 -111 1361 -223 1408 -231 1417 -246 4 -8 53 -293
109 -634 55 -341 123 -755 150 -920 27 -165 52 -320 56 -344 11 -81 82 -117
134 -68 22 21 34 85 183 992 87 534 164 975 170 981 6 6 236 47 511 92 1472
240 1438 234 1462 258 30 30 30 78 0 108 -24 24 10 18 -1462 258 -275 45 -505
86 -511 92 -6 6 -83 448 -170 981 -142 869 -161 972 -181 993 -27 27 -72 29
-103 4z m179 -1342 c67 -409 128 -751 134 -759 7 -8 26 -19 42 -26 17 -7 360
-66 762 -131 403 -65 733 -121 733 -124 0 -3 -339 -60 -753 -128 -674 -110
-754 -125 -774 -145 -23 -23 -28 -51 -215 -1199 -29 -181 -55 -328 -58 -328
-3 0 -29 147 -58 328 -191 1173 -192 1176 -215 1199 -20 20 -101 35 -774 145
-414 68 -753 125 -753 128 0 3 330 59 733 124 402 65 746 124 762 131 56 22
37 -70 247 1217 29 180 56 324 59 320 3 -4 61 -342 128 -752z"/>
</g>
</svg>
