<?xml version="1.0" standalone="no"?>
<!DOCTYPE svg PUBLIC "-//W3C//DTD SVG 20010904//EN"
 "http://www.w3.org/TR/2001/REC-SVG-20010904/DTD/svg10.dtd">
<svg version="1.0" xmlns="http://www.w3.org/2000/svg"
 width="512.000000pt" height="512.000000pt" viewBox="0 0 512.000000 512.000000"
 preserveAspectRatio="xMidYMid meet">
<g transform="translate(0.000000,512.000000) scale(0.100000,-0.100000)"
fill="currentColor" stroke="none">
<path d="M4576 4693 c-638 -632 -964 -918 -1283 -1127 -107 -70 -314 -179
-396 -208 l-47 -17 -19 37 c-59 115 -126 367 -155 577 -15 110 -34 378 -38
552 -3 109 -15 128 -79 128 -66 0 -79 -25 -79 -150 0 -348 -62 -772 -144 -987
-32 -83 -84 -198 -90 -198 -3 0 -42 12 -88 26 -205 64 -469 234 -695 448 -99
93 -117 106 -148 106 -46 0 -75 -29 -75 -75 0 -30 12 -48 86 -127 239 -255
384 -476 458 -697 41 -124 49 -111 -102 -173 -244 -99 -522 -146 -986 -166
-170 -8 -179 -9 -197 -31 -24 -30 -24 -72 0 -102 18 -23 26 -24 207 -31 476
-18 752 -68 1027 -187 l47 -20 -24 -66 c-41 -106 -123 -258 -217 -398 -219
-330 -505 -650 -1211 -1362 -254 -257 -262 -267 -242 -320 10 -24 62 -48 91
-40 15 3 169 148 377 354 624 619 939 895 1268 1114 101 68 315 180 392 206
l56 20 14 -27 c29 -58 85 -222 110 -322 48 -200 86 -557 86 -815 0 -79 2 -88
26 -112 21 -21 32 -24 62 -20 65 11 66 15 74 250 15 446 73 755 188 1004 44
96 33 92 165 45 213 -75 442 -227 676 -449 84 -79 103 -93 132 -93 45 0 77 31
77 76 0 30 -12 47 -90 130 -237 252 -388 483 -461 706 -16 49 -29 92 -29 94 0
8 98 53 193 88 234 88 620 145 974 146 56 0 113 4 128 10 45 17 55 78 22 125
-14 17 -36 20 -263 31 -443 22 -723 74 -957 178 -66 30 -65 22 -15 141 90 215
274 487 534 790 188 218 355 395 757 801 305 309 359 367 364 397 7 46 -30 87
-78 87 -28 0 -70 -38 -383 -347z m-1988 -1109 c13 -48 39 -125 58 -173 47
-114 47 -114 -1 -122 -48 -9 -213 -15 -219 -8 -3 3 6 29 20 59 28 62 90 244
100 295 3 19 9 35 13 35 3 0 16 -39 29 -86z m873 -161 c-43 -65 -101 -158
-129 -208 -51 -92 -122 -244 -122 -264 0 -29 -40 -2 -139 97 -60 59 -114 117
-120 130 -11 21 -9 24 26 38 109 44 313 155 428 233 72 49 131 89 133 90 1 1
-33 -52 -77 -116z m-1406 -228 c44 -16 84 -32 89 -37 10 -8 -162 -188 -180
-188 -5 0 -20 33 -33 73 -12 39 -43 112 -67 161 -24 49 -44 90 -44 92 0 3 35
-13 78 -35 42 -21 113 -51 157 -66z m755 -98 c67 -100 228 -254 338 -322 1 -1
-4 -42 -13 -90 -8 -49 -15 -147 -15 -224 l0 -136 -37 -25 c-59 -40 -205 -183
-248 -244 l-40 -56 -135 0 c-74 0 -171 -7 -215 -15 -44 -8 -85 -15 -91 -15 -6
0 -25 22 -43 50 -48 73 -171 200 -259 266 -42 32 -78 59 -80 60 -2 1 4 43 13
94 10 57 15 141 14 221 l-1 130 63 48 c70 53 200 185 239 244 l25 37 140 1
c77 0 172 6 210 13 100 19 97 20 135 -37z m-972 -522 c-3 -70 -9 -130 -14
-135 -5 -5 -52 8 -114 33 -58 23 -140 51 -182 62 -43 10 -78 22 -78 25 0 3 24
12 53 20 81 20 222 69 280 95 28 14 54 25 56 25 2 0 2 -56 -1 -125z m1612 55
c41 -15 108 -36 148 -46 39 -10 72 -21 72 -25 0 -3 -26 -12 -57 -18 -55 -13
-213 -68 -297 -105 l-39 -17 5 124 c3 68 8 129 12 135 5 9 17 8 44 -4 20 -9
71 -29 112 -44z m-1497 -472 c74 -52 241 -230 226 -242 -2 -1 -20 -8 -39 -16
-96 -36 -309 -151 -426 -230 l-132 -88 74 111 c114 169 254 432 254 476 0 16
8 14 43 -11z m1235 -81 c13 -39 43 -112 67 -162 24 -49 42 -91 41 -93 -2 -1
-39 15 -82 37 -43 22 -116 52 -161 68 -46 15 -83 32 -83 37 0 13 173 186 186
186 5 0 19 -33 32 -73z m-534 -345 c-23 -59 -53 -146 -66 -194 -12 -49 -25
-88 -28 -88 -3 0 -16 39 -29 88 -13 48 -41 130 -62 182 -21 52 -34 99 -30 103
9 9 215 25 242 19 14 -3 10 -20 -27 -110z"/>
</g>
</svg>
