<svg width="145.5" height="45.001" viewBox="0 0 145.5 45.001" xmlns="http://www.w3.org/2000/svg"><g id="svgGroup" stroke-linecap="round" fill-rule="evenodd" font-size="9pt" stroke="#000" stroke-width="0.25mm" fill="#000" style="stroke:#000;stroke-width:0.25mm;fill:#000"><path d="M 0 41.1 L 0 18.4 Q 0 16.8 1.25 15.65 Q 2.5 14.5 4.5 14.5 Q 6.8 14.5 8 16.1 Q 8.5 16.7 8.6 17.3 Q 9.8 15.8 11.8 14.9 Q 13.8 14 16.3 14 Q 23.1 14 26.1 18.5 Q 27.9 16.3 30.5 15.15 Q 33.1 14 35.9 14 Q 41.5 14 44.75 17.3 Q 48 20.6 48 27.8 L 48 41.3 Q 48 42.9 46.75 43.95 Q 45.5 45 43.6 45 Q 41.7 45 40.45 43.9 Q 39.2 42.8 39.2 41.1 L 39.2 28.9 Q 39.2 25.2 37.9 23.6 Q 36.6 22 34.2 22 Q 31.8 22 30.35 23.45 Q 28.9 24.9 28.4 26.9 L 28.4 41.3 Q 28.4 42.9 27.15 43.95 Q 25.9 45 24 45 Q 22.1 45 20.85 43.9 Q 19.6 42.8 19.6 41.1 L 19.6 28.9 Q 19.6 25.2 18.3 23.6 Q 17 22 14.6 22 Q 12.3 22 10.8 23.45 Q 9.3 24.9 8.8 26.8 L 8.8 41 Q 8.8 42.7 7.55 43.85 Q 6.3 45 4.5 45 Q 2.6 45 1.3 43.9 Q 0 42.8 0 41.1 Z M 101.2 17.1 L 101.2 4 Q 101.2 2.3 102.4 1.15 Q 103.6 0 105.5 0 Q 107.5 0 108.75 1.15 Q 110 2.3 110 3.9 L 110 41.1 Q 110 42.8 108.75 43.9 Q 107.5 45 105.5 45 Q 102.3 45 101.4 42.2 Q 98.3 45 93.8 45 Q 87.1 45 83.05 40.75 Q 79 36.5 79 29.4 Q 79 22.3 82.95 18.15 Q 86.9 14 93.5 14 Q 97.8 14 101.2 17.1 Z M 58.1 34.8 L 58.1 24 Q 58.1 23 57.1 23 L 55.6 23 Q 53.8 23 52.9 21.9 Q 52 20.8 52 19.1 Q 52 17.3 52.9 16.15 Q 53.8 15 55.6 15 L 57.1 15 Q 58.1 15 58.1 14 L 58.1 6.6 Q 58.1 4.9 59.3 3.7 Q 60.5 2.5 62.4 2.5 Q 64.3 2.5 65.55 3.65 Q 66.8 4.8 66.8 6.6 L 66.8 14 Q 66.8 15 67.8 15 L 71.5 15 Q 73.2 15 74.35 16.2 Q 75.5 17.4 75.5 19.1 Q 75.5 20.8 74.35 21.9 Q 73.2 23 71.4 23 L 67.8 23 Q 66.8 23 66.8 24 L 66.8 33.4 Q 66.8 35.2 67.45 35.9 Q 68.1 36.6 69.1 36.6 Q 69.5 36.6 70.7 36.35 Q 71.9 36.1 72.2 36.1 Q 73.8 36.1 74.9 37.3 Q 76 38.5 76 40.2 Q 76 41.5 75.25 42.6 Q 74.5 43.7 72.9 44.2 Q 71.6 44.6 70.4 44.8 Q 69.2 45 68 45 Q 63.7 45 60.9 42.5 Q 58.1 40 58.1 34.8 Z M 124.5 41.8 L 114.8 19.8 Q 114.5 18.9 114.5 18 Q 114.5 16 115.9 15 Q 117.3 14 119.1 14 Q 120.5 14 121.55 14.75 Q 122.6 15.5 123 16.8 L 128.9 32.9 Q 129.4 34.2 130.3 34.2 Q 131.1 34.2 131.6 32.9 L 137.1 16.8 Q 137.6 15.4 138.7 14.7 Q 139.8 14 141.1 14 Q 142.8 14 144.15 15.05 Q 145.5 16.1 145.5 18.2 L 145.5 18.95 Q 145.5 19.3 145.3 19.8 L 135.9 41.8 Q 135.2 43.4 133.65 44.2 Q 132.1 45 130.2 45 Q 128.4 45 126.8 44.2 Q 125.2 43.4 124.5 41.8 Z M 94.5 36.9 Q 97.5 36.9 99.35 34.75 Q 101.2 32.6 101.2 29.4 Q 101.2 26.1 99.35 24.1 Q 97.5 22.1 94.5 22.1 Q 91.4 22.1 89.55 24.1 Q 87.7 26.1 87.7 29.4 Q 87.7 32.6 89.55 34.75 Q 91.4 36.9 94.5 36.9 Z" vector-effect="non-scaling-stroke"/></g></svg>