<?xml version="1.0" standalone="no"?>
<!DOCTYPE svg PUBLIC "-//W3C//DTD SVG 20010904//EN"
 "http://www.w3.org/TR/2001/REC-SVG-20010904/DTD/svg10.dtd">
<svg version="1.0" xmlns="http://www.w3.org/2000/svg"
 width="512.000000pt" height="512.000000pt" viewBox="0 0 512.000000 512.000000"
 preserveAspectRatio="xMidYMid meet">
<g transform="translate(0.000000,512.000000) scale(0.100000,-0.100000)"
fill="currentColor" stroke="none">
<path d="M506 4616 c-50 -49 -46 -55 232 -442 769 -1068 1003 -1396 998 -1401
-3 -3 -184 -34 -403 -70 -220 -36 -408 -71 -420 -79 -13 -8 -25 -25 -29 -39
-9 -36 3 -73 29 -89 12 -8 200 -43 420 -79 219 -36 400 -67 403 -70 5 -5 -215
-314 -998 -1401 -278 -387 -282 -393 -232 -442 19 -20 33 -25 57 -22 23 3 280
182 905 632 481 345 876 625 879 622 5 -5 47 -248 124 -726 10 -66 19 -90 38
-107 29 -28 68 -29 100 -4 23 17 29 46 91 425 37 224 70 409 73 412 3 3 398
-277 879 -622 625 -450 882 -629 905 -632 41 -5 83 33 83 76 0 22 -143 229
-631 907 -631 878 -642 895 -589 895 8 0 186 28 395 62 350 57 381 63 402 86
30 32 30 76 0 106 -20 20 -66 30 -402 84 -209 34 -387 62 -395 62 -53 0 -44
15 331 536 205 286 476 663 602 839 127 176 243 338 259 359 35 50 36 89 2
122 -19 20 -33 25 -57 22 -23 -3 -280 -182 -905 -632 -481 -345 -876 -625
-879 -622 -4 3 -36 189 -73 412 -60 369 -69 409 -89 426 -30 23 -72 23 -102 0
-20 -17 -29 -58 -89 -426 -37 -224 -70 -409 -73 -412 -3 -3 -398 277 -879 622
-625 450 -882 629 -905 632 -24 3 -38 -2 -57 -22z m1127 -925 c378 -271 687
-498 686 -505 0 -6 -12 -83 -27 -171 l-28 -159 -129 -22 c-72 -12 -148 -24
-171 -27 l-41 -7 -70 98 c-314 436 -921 1280 -928 1292 -7 12 -6 13 6 4 8 -6
323 -233 702 -503z m2560 497 c-6 -11 -661 -923 -926 -1290 l-70 -98 -41 7
c-23 3 -99 15 -171 27 l-129 22 -28 164 c-16 91 -25 171 -21 177 7 11 1382
1002 1391 1003 2 0 0 -6 -5 -12z m-1599 -732 l30 -185 -25 -20 c-13 -11 -31
-20 -39 -20 -8 0 -26 9 -39 20 l-25 20 30 185 c16 101 31 184 34 184 3 0 18
-83 34 -184z m-88 -391 c46 -31 62 -31 108 0 26 17 38 21 41 12 2 -6 13 -73
25 -147 27 -172 35 -197 68 -214 15 -7 92 -23 172 -35 80 -12 151 -24 157 -26
9 -3 5 -15 -12 -41 -31 -46 -31 -57 -1 -109 l25 -41 -142 -23 c-204 -32 -216
-36 -231 -74 -8 -18 -24 -99 -37 -182 -12 -82 -24 -151 -25 -153 -1 -2 -19 8
-39 23 -21 14 -46 25 -55 25 -9 0 -34 -11 -55 -25 -20 -15 -38 -25 -39 -23 -1
2 -14 77 -29 167 -22 138 -30 168 -49 187 -19 19 -51 28 -188 50 -91 15 -166
28 -168 29 -2 2 9 20 23 41 29 43 28 70 -6 117 -24 33 -32 30 141 57 177 27
199 34 215 74 7 17 23 100 36 184 13 83 24 152 26 152 1 0 19 -11 39 -25z
m-632 -470 c20 -31 20 -44 -3 -74 l-19 -25 -186 30 c-102 16 -186 31 -186 34
0 6 301 57 346 59 23 1 36 -5 48 -24z m1588 -2 c98 -15 178 -30 178 -33 0 -3
-84 -18 -186 -34 l-186 -30 -19 25 c-10 13 -19 30 -19 37 0 18 30 62 44 62 6
1 91 -12 188 -27z m-1327 -307 l129 -22 28 -159 c15 -88 27 -165 27 -172 1 -6
-308 -233 -686 -504 -379 -271 -694 -497 -702 -503 -12 -9 -13 -8 -6 4 7 12
614 856 928 1292 l70 98 41 -7 c23 -3 99 -15 171 -27z m1222 -188 c88 -123
310 -433 495 -689 364 -506 359 -499 337 -483 -8 6 -323 232 -701 503 -379
271 -688 498 -687 504 0 7 12 84 27 172 l28 160 159 27 c88 14 165 27 171 27
6 1 83 -99 171 -221z m-758 -229 l25 -20 -28 -177 c-16 -97 -32 -180 -35 -184
-4 -4 -20 75 -36 177 l-28 184 24 20 c30 26 48 26 78 0z"/>
</g>
</svg>
