<?xml version="1.0" standalone="no"?>
<!DOCTYPE svg PUBLIC "-//W3C//DTD SVG 20010904//EN"
 "http://www.w3.org/TR/2001/REC-SVG-20010904/DTD/svg10.dtd">
<svg version="1.0" xmlns="http://www.w3.org/2000/svg"
 width="512.000000pt" height="512.000000pt" viewBox="0 0 512.000000 512.000000"
 preserveAspectRatio="xMidYMid meet">
<g transform="translate(0.000000,512.000000) scale(0.100000,-0.100000)"
fill="currentColor" stroke="none">
<path d="M1030 3713 c-327 -32 -487 -71 -665 -161 -319 -164 -373 -464 -139
-782 95 -129 295 -308 483 -432 80 -52 115 -59 148 -28 50 46 37 100 -35 145
-109 69 -253 185 -348 279 -255 255 -301 459 -136 607 87 78 222 135 417 174
763 154 2122 -106 3100 -592 521 -259 894 -564 996 -814 31 -75 31 -179 2
-235 -46 -87 -193 -184 -345 -228 -209 -60 -421 -80 -760 -73 -501 10 -1035
106 -1625 291 -95 30 -117 34 -143 25 -34 -12 -50 -35 -50 -74 0 -50 16 -62
127 -99 446 -147 1018 -261 1483 -297 198 -15 608 -6 745 15 370 60 595 172
698 348 215 366 -220 880 -1103 1306 -814 392 -1848 638 -2650 630 -91 0 -181
-3 -200 -5z"/>
<path d="M1226 2696 c-15 -14 -28 -45 -36 -82 -26 -135 -62 -262 -87 -314 -36
-72 -80 -98 -253 -149 -143 -43 -170 -61 -170 -110 0 -46 25 -69 103 -91 233
-67 287 -96 323 -175 24 -51 58 -177 84 -309 14 -69 45 -106 88 -106 57 0 71
23 108 185 18 83 46 178 60 213 40 94 74 115 284 177 122 37 150 56 150 104 0
46 -25 69 -103 91 -129 37 -221 71 -259 96 -62 40 -98 134 -148 388 -14 70
-45 106 -90 106 -19 0 -40 -9 -54 -24z m82 -460 c29 -66 97 -136 163 -167 27
-13 49 -26 49 -29 0 -3 -24 -18 -54 -33 -72 -38 -129 -97 -158 -163 -13 -30
-26 -54 -29 -54 -4 0 -14 20 -24 45 -23 62 -102 145 -164 175 -28 13 -51 26
-51 30 0 4 23 17 50 30 63 29 140 110 166 172 10 27 21 48 24 48 3 0 15 -25
28 -54z"/>
</g>
</svg>
